<?xml version="1.0" encoding="UTF-8"?>
<!-- Created with Inkscape (http://www.inkscape.org/) -->
<svg width="227.56" height="158.41" version="1.1" viewBox="0 0 60.208 41.912" xmlns="http://www.w3.org/2000/svg" xmlns:cc="http://creativecommons.org/ns#" xmlns:dc="http://purl.org/dc/elements/1.1/" xmlns:rdf="http://www.w3.org/1999/02/22-rdf-syntax-ns#">
 <metadata>
  <rdf:RDF>
   <cc:Work rdf:about="">
    <dc:format>image/svg+xml</dc:format>
    <dc:type rdf:resource="http://purl.org/dc/dcmitype/StillImage"/>
    <dc:title/>
   </cc:Work>
  </rdf:RDF>
 </metadata>
 <g transform="translate(-36.042 -40.217)">
  <g transform="translate(1e-6 1.3229)" fill="none" stroke="#000" stroke-width="2">
   <path d="m52.917 43c-8.7675 0-15.875 7.1075-15.875 15.875s7.1075 15.875 15.875 15.875"/>
   <path d="m79.375 43c8.7675 0 15.875 7.1075 15.875 15.875s-7.1075 15.875-15.875 15.875"/>
   <path d="m52.917 43h26.458"/>
   <path d="m52.917 74.75h26.458"/>
  </g>
  <g stroke="#000">
   <circle cx="80.46" cy="44.324" r="1.3229" fill="#fff" stroke-width=".26458"/>
   <path transform="matrix(0 1.9837 -3.029 0 114.32 29.988)" d="m9.2604 21.582h-2.0173-2.0173l2.0173-3.494 1.0086 1.747z" fill="#f00" stroke-width=".079896"/>
   <path transform="matrix(0 1.9674 3.029 0 19.295 61.823)" d="m9.2604 21.582h-2.0173-2.0173l2.0173-3.494 1.0086 1.747z" fill="#f00" stroke-width=".079896"/>
  </g>
  <path d="m37.042 81.365 42.333-35.719" fill="none" stroke="#ff6502" stroke-width="2"/>
  <path transform="matrix(-.42959 -.47871 .96912 -.84956 37.19 93.24)" d="m13.229 33.74-4.5827-7.9375h9.1654z" stroke="#000" stroke-width=".765"/>
 </g>
</svg>
