<?xml version="1.0" standalone="no"?>
<!DOCTYPE svg PUBLIC "-//W3C//DTD SVG 20010904//EN"
 "http://www.w3.org/TR/2001/REC-SVG-20010904/DTD/svg10.dtd">
<svg version="1.0" xmlns="http://www.w3.org/2000/svg"
 width="912.000000pt" height="912.000000pt" viewBox="0 0 912.000000 912.000000"
 preserveAspectRatio="xMidYMid meet">
<metadata>
Created by potrace 1.11, written by Peter Selinger 2001-2013
</metadata>
<g transform="translate(0.000000,912.000000) scale(0.100000,-0.100000)"
fill="#000000" stroke="none">
<path d="M1939 7717 c0 -6 -1 -128 -1 -270 -1 -266 -1 -263 -40 -271 -7 -2
-20 -5 -28 -8 -15 -6 -195 -66 -215 -72 -5 -2 -23 -8 -38 -14 -16 -7 -30 -12
-33 -12 -30 0 -420 -212 -476 -259 -7 -6 -42 -32 -78 -58 -123 -88 -317 -269
-415 -387 -22 -27 -47 -57 -56 -67 -9 -11 -27 -35 -40 -54 -13 -19 -27 -35
-31 -35 -5 0 -8 -7 -8 -15 0 -8 -3 -15 -7 -15 -5 0 -21 -23 -38 -51 -16 -28
-35 -56 -41 -62 -21 -24 -124 -216 -172 -323 -108 -240 -177 -499 -210 -779
-15 -135 -6 -522 14 -632 3 -15 7 -37 9 -48 12 -76 20 -115 50 -230 18 -71 49
-175 70 -230 70 -191 207 -452 310 -591 16 -23 37 -52 45 -64 8 -12 22 -30 30
-40 8 -10 35 -42 59 -71 85 -103 282 -293 381 -368 25 -19 50 -39 55 -45 6 -6
22 -17 37 -25 15 -8 42 -27 60 -42 l33 -29 -25 -21 c-13 -11 -42 -35 -63 -52
-21 -18 -49 -41 -61 -52 -12 -11 -44 -38 -70 -60 -27 -22 -54 -45 -60 -50 -10
-10 -216 -184 -330 -279 -28 -22 -95 -80 -150 -127 -56 -47 -112 -94 -125
-105 -13 -10 -40 -33 -60 -51 -20 -18 -46 -40 -58 -50 -80 -66 -103 -87 -103
-93 0 -4 9 -18 21 -31 11 -13 39 -46 62 -74 23 -27 57 -66 76 -87 l34 -38 41
37 c23 21 64 56 91 78 27 22 53 45 59 50 6 6 43 36 81 68 86 72 161 136 191
162 13 11 36 30 51 42 15 12 44 36 63 53 19 16 42 36 50 43 8 8 47 40 85 72
39 32 72 62 73 67 2 4 8 8 14 8 6 0 18 8 27 18 9 10 39 36 66 57 28 22 52 43
55 46 17 22 247 209 256 209 6 0 46 -16 88 -35 80 -36 322 -120 372 -128 16
-3 36 -8 44 -11 8 -3 31 -8 50 -11 47 -8 66 -12 125 -24 53 -10 126 -20 215
-28 30 -2 897 -6 1925 -7 2016 -3 1865 1 1980 -46 39 -16 151 -58 250 -94 55
-21 109 -41 120 -46 11 -5 144 -54 295 -110 282 -104 297 -110 340 -128 40
-18 115 -40 120 -37 3 2 5 136 5 299 l-1 295 45 17 c26 10 51 19 56 20 13 2
105 44 215 97 96 46 293 164 298 178 2 5 8 9 13 9 9 0 104 67 135 95 6 6 40
34 75 62 72 59 256 245 309 313 19 24 43 52 52 61 56 58 319 497 306 511 -1 2
5 17 14 33 30 54 107 264 124 340 1 6 14 57 27 115 21 85 45 229 57 330 1 8 2
112 3 230 1 189 -3 283 -18 371 -2 13 -6 42 -10 63 -3 21 -7 48 -10 60 -3 12
-7 32 -10 46 -15 76 -49 206 -64 250 -5 14 -24 66 -42 115 -18 50 -36 94 -41
100 -4 5 -8 17 -8 27 0 10 -4 18 -10 18 -5 0 -10 6 -10 14 0 16 -83 180 -138
271 -46 78 -153 230 -201 286 -6 8 -28 34 -49 59 -63 75 -235 244 -313 306
-41 32 -76 61 -79 64 -3 3 -18 14 -35 26 -16 11 -52 36 -80 55 -114 79 -409
239 -442 239 -4 0 -21 7 -36 15 -67 35 -372 125 -472 140 -32 5 -74 12 -116
21 -15 3 -37 16 -50 30 -70 74 -202 80 -288 13 -23 -18 -72 -19 -1715 -19
l-1692 0 -59 21 c-33 11 -64 24 -70 27 -5 4 -14 7 -20 9 -5 1 -32 10 -60 21
-27 10 -95 36 -150 56 -55 20 -109 41 -120 46 -25 10 -61 24 -310 116 -110 41
-209 79 -220 84 -11 5 -58 23 -105 40 -47 18 -95 36 -107 41 -16 6 -23 5 -24
-4z m4439 -766 c2 0 -82 -72 -185 -158 -103 -86 -193 -162 -199 -168 -7 -5
-31 -26 -54 -44 -23 -19 -48 -40 -54 -46 -11 -10 -144 -123 -181 -154 -31 -25
-208 -175 -221 -186 -6 -5 -33 -28 -60 -50 -26 -22 -82 -69 -124 -105 -42 -36
-101 -85 -130 -110 -30 -25 -65 -55 -78 -67 -12 -13 -25 -23 -27 -23 -3 0 -13
-8 -23 -17 -11 -10 -28 -25 -38 -33 -34 -27 -139 -115 -144 -121 -3 -3 -34
-30 -70 -59 -36 -30 -78 -66 -95 -81 -16 -15 -122 -105 -235 -199 -205 -172
-275 -231 -318 -268 -13 -11 -42 -35 -64 -54 -23 -18 -60 -50 -82 -70 -33 -30
-152 -100 -176 -103 -3 -1 -33 -15 -66 -33 -34 -17 -64 -28 -68 -25 -3 4 -6 1
-6 -5 0 -7 -9 -12 -20 -12 -11 0 -20 -4 -20 -10 0 -5 -5 -10 -12 -10 -6 0 -38
-13 -72 -29 -147 -70 -414 -196 -521 -246 -44 -21 -118 -56 -165 -78 -47 -22
-87 -41 -90 -42 -13 -3 -70 -36 -70 -41 0 -3 6 -11 13 -18 11 -11 46 -51 176
-196 44 -49 46 -40 -29 -100 -17 -14 -39 -32 -48 -41 -9 -8 -60 -51 -112 -95
-52 -43 -97 -81 -100 -84 -3 -3 -61 -52 -130 -110 -69 -57 -127 -106 -130
-109 -3 -4 -45 -40 -95 -81 -49 -41 -97 -81 -106 -90 -9 -8 -25 -22 -35 -30
-30 -23 -138 -114 -144 -120 -3 -3 -32 -28 -65 -55 -33 -28 -62 -52 -65 -55
-3 -3 -32 -28 -65 -55 -33 -27 -78 -65 -100 -85 -22 -19 -62 -53 -89 -75 -27
-22 -60 -50 -75 -63 -14 -13 -43 -36 -63 -53 l-36 -29 -109 72 c-59 39 -110
74 -113 78 -3 3 -25 21 -50 40 -80 63 -198 176 -285 276 -98 111 -285 388
-285 421 0 7 -3 13 -8 13 -4 0 -14 15 -21 33 -8 17 -28 61 -44 97 -76 168
-145 398 -163 545 -3 22 -7 51 -10 65 -22 112 -23 495 -1 605 3 11 8 43 12 70
28 177 62 296 142 494 25 64 49 118 53 121 6 5 22 38 24 50 1 3 11 21 24 41
12 20 22 41 22 48 0 6 5 11 10 11 6 0 10 5 10 10 0 22 148 230 234 330 66 76
215 218 291 278 44 34 85 66 90 71 90 71 315 196 460 256 86 36 211 79 230 80
6 0 10 -70 10 -190 0 -183 1 -190 20 -187 18 3 198 67 270 97 17 6 55 21 85
32 30 12 102 39 160 61 58 22 186 70 285 107 99 38 191 72 205 78 14 6 30 11
35 12 6 2 46 17 90 35 44 18 90 35 103 39 19 5 3178 7 3190 2z m225 -24 c32
-25 50 -31 107 -35 59 -4 76 -1 117 20 39 20 56 23 88 17 22 -4 56 -10 75 -14
36 -6 195 -43 218 -50 7 -3 16 -5 20 -6 44 -10 263 -99 334 -135 15 -8 31 -14
34 -13 4 0 10 -3 13 -8 3 -4 26 -19 51 -32 25 -13 53 -31 63 -39 9 -8 17 -12
17 -9 0 9 162 -105 244 -172 88 -71 238 -218 302 -296 27 -33 52 -62 55 -65
17 -13 160 -234 203 -312 68 -125 161 -348 180 -433 2 -5 8 -30 15 -55 17 -58
40 -164 47 -215 3 -22 7 -51 10 -65 24 -139 24 -464 0 -615 -3 -16 -7 -46 -10
-65 -3 -19 -8 -46 -11 -60 -3 -14 -8 -34 -10 -45 -9 -49 -16 -81 -22 -100 -4
-11 -8 -24 -9 -30 -20 -99 -126 -354 -212 -506 -11 -20 -26 -47 -34 -60 -7
-13 -15 -26 -18 -29 -14 -14 -50 -70 -50 -79 0 -5 -3 -11 -7 -13 -5 -1 -34
-37 -65 -78 -86 -114 -187 -222 -290 -312 -33 -29 -66 -57 -72 -63 -84 -76
-312 -219 -451 -284 -49 -23 -98 -47 -107 -52 -41 -22 -44 -15 -43 129 1 75
-1 144 -3 153 -3 15 -10 14 -63 -6 -33 -13 -61 -24 -62 -24 -1 0 -15 -5 -32
-11 -16 -7 -64 -24 -105 -39 -97 -36 -523 -195 -620 -232 -258 -98 -309 -117
-345 -128 -31 -9 -458 -11 -1940 -9 -1045 2 -1916 7 -1935 11 -48 10 -101 20
-125 23 -102 13 -405 102 -430 125 -6 6 -2 14 10 23 11 8 31 24 46 37 14 13
47 42 74 64 44 36 90 75 264 224 64 53 119 100 186 156 26 22 57 48 69 58 11
10 30 26 41 35 100 84 152 127 160 137 6 5 30 26 55 45 25 19 55 44 66 55 12
11 57 49 100 85 44 35 81 67 84 70 5 5 32 28 193 164 67 56 69 57 86 37 9 -10
50 -57 91 -102 41 -46 89 -99 106 -118 l31 -35 13 25 c7 13 16 26 19 29 3 3
11 13 16 22 6 10 80 126 165 259 85 134 157 247 159 253 2 6 7 13 10 16 4 3
31 43 61 90 61 96 147 230 197 306 19 30 79 90 146 145 61 52 117 99 123 104
6 6 32 28 59 50 27 22 57 48 67 58 10 9 20 17 23 17 3 0 18 12 33 28 15 15 47
43 72 62 24 19 52 42 60 50 9 8 38 34 65 56 118 98 320 269 325 274 3 3 75 64
160 135 85 71 157 132 160 135 3 3 46 39 95 80 50 41 92 77 95 80 3 3 61 53
130 110 69 57 136 114 150 126 24 22 61 52 170 144 60 50 111 93 190 160 29
25 62 53 74 62 11 10 28 23 36 30 8 7 46 39 85 72 38 32 72 61 75 65 3 3 25
22 50 42 25 20 55 46 68 57 34 30 103 86 115 94 8 5 6 13 -4 25 -9 10 -39 45
-67 79 -29 33 -52 63 -52 66 0 15 40 1 73 -25z"/>
</g>
</svg>
